<?xml version="1.0" encoding="utf-8"?>
<!-- Generator: Adobe Illustrator 21.0.0, SVG Export Plug-In . SVG Version: 6.00 Build 0)  -->
<svg version="1.1" id="Layer_1" xmlns="http://www.w3.org/2000/svg" xmlns:xlink="http://www.w3.org/1999/xlink" x="0px" y="0px"
	 viewBox="0 0 33.7 21.7" style="enable-background:new 0 0 33.7 21.7;" xml:space="preserve">
<style type="text/css">
	.st0{fill:#B0BEC5;}
	.st1{fill:#CFD8DC;}
</style>
<g>
	<path class="st0" d="M14,9.7c1.9-3.4,6.1-4.6,9.5-2.8c0.5,0.3,1,0.7,1.4,1.1c-1.2-2-3.6-3-5.9-2.3c-0.4-2-1.7-3.8-3.5-4.8
		C12.1-1,7.9,0.3,6,3.7c-3.3,0-6,2.7-6,6s2.7,6,6,6h2C8,12.4,10.7,9.7,14,9.7z"/>
	<path class="st1" d="M33.5,15.2c-0.8-2.8-3.7-4.3-6.5-3.5C26.7,10.3,26,9,24.9,8c-0.4-0.4-0.9-0.8-1.4-1.1C20.1,5,15.9,6.3,14,9.7
		c-3.3,0-6,2.7-6,6s2.7,6,6,6h16C32.8,20.9,34.3,18,33.5,15.2z"/>
</g>
</svg>
