<?xml version="1.0" encoding="utf-8"?>
<!-- Generator: Adobe Illustrator 21.0.0, SVG Export Plug-In . SVG Version: 6.00 Build 0)  -->
<svg version="1.1" id="Layer_1" xmlns="http://www.w3.org/2000/svg" xmlns:xlink="http://www.w3.org/1999/xlink" x="0px" y="0px"
	 viewBox="0 0 27.7 15.9" style="enable-background:new 0 0 27.7 15.9;" xml:space="preserve">
<style type="text/css">
	.st0{fill:#2C3E50;}
	.st1{fill:#CFD8DC;}
</style>
<g>
	<path class="st0" d="M8,4c0.7-1.3,1.7-2.2,2.9-2.8C9.8,0.4,8.4,0,7,0C3.1,0,0,3.1,0,7c0,2.1,1,4,2.5,5.3C2.2,11.6,2,10.8,2,10
		C2,6.7,4.7,4,8,4z"/>
	<path class="st1" d="M27.5,9.5C26.7,6.7,23.8,5.2,21,6c-0.4-2-1.7-3.8-3.5-4.8c-2.1-1.2-4.6-1.1-6.6-0.1C9.7,1.7,8.7,2.7,8,3.9
		c-3.3,0-6,2.7-6,6c0,0.8,0.2,1.6,0.5,2.3c0.9,2.2,3,3.7,5.5,3.7h16C26.8,15.2,28.3,12.3,27.5,9.5z"/>
</g>
</svg>
