<?xml version="1.0" encoding="utf-8"?>
<!-- Generator: Adobe Illustrator 21.0.0, SVG Export Plug-In . SVG Version: 6.00 Build 0)  -->
<svg version="1.1" id="Layer_1" xmlns="http://www.w3.org/2000/svg" xmlns:xlink="http://www.w3.org/1999/xlink" x="0px" y="0px"
	 viewBox="0 0 34 14" style="enable-background:new 0 0 34 14;" xml:space="preserve">
<style type="text/css">
	.st0{fill:#B0BEC5;}
</style>
<g>
	<path class="st0" d="M33,0H1C0.4,0,0,0.4,0,1s0.4,1,1,1h32c0.6,0,1-0.4,1-1S33.6,0,33,0z"/>
	<path class="st0" d="M29,6H1C0.4,6,0,6.4,0,7s0.4,1,1,1h28c0.6,0,1-0.4,1-1S29.6,6,29,6z"/>
	<path class="st0" d="M25,12H1c-0.6,0-1,0.4-1,1c0,0.6,0.4,1,1,1h24c0.6,0,1-0.4,1-1S25.6,12,25,12z"/>
</g>
</svg>
