<?xml version="1.0" encoding="utf-8"?>
<!-- Generator: Adobe Illustrator 21.0.0, SVG Export Plug-In . SVG Version: 6.00 Build 0)  -->
<svg version="1.1" id="icon" xmlns="http://www.w3.org/2000/svg" xmlns:xlink="http://www.w3.org/1999/xlink" x="0px" y="0px"
	 viewBox="0 0 700 700" style="enable-background:new 0 0 700 700;" xml:space="preserve">
<style type="text/css">
	.st0{fill:none;}
</style>
<title>no-image</title>
<g>
	<path d="M700,35.4L664.6,0L0,664.6L35.4,700l50-50H600c27.6,0,50-22.4,50-50V85.4L700,35.4z M600,600H135.4l194.8-194.8l59.5,59.5
		c19.5,19.5,51.2,19.5,70.7,0L500,425l100,99.9V600z M600,454.2l-64.6-64.6c-19.5-19.5-51.2-19.5-70.7,0L425,429.2l-59.4-59.4
		L600,135.4V454.2z"/>
	<path d="M100,500v-75l125-124.9l34.3,34.3l35.4-35.4l-34.4-34.4c-19.5-19.5-51.2-19.5-70.7,0L100,354.3V100h400V50H100
		c-27.6,0-50,22.4-50,50v400H100z"/>
</g>
<rect id="_Transparent_Rectangle_" x="-50" y="-50" class="st0" width="800" height="800"/>
</svg>
