<?xml version="1.0" encoding="utf-8"?>
<!-- Generator: Adobe Illustrator 21.0.0, SVG Export Plug-In . SVG Version: 6.00 Build 0)  -->
<svg version="1.1" id="Layer_1" xmlns="http://www.w3.org/2000/svg" xmlns:xlink="http://www.w3.org/1999/xlink" x="0px" y="0px"
	 viewBox="0 0 28.7 25.6" style="enable-background:new 0 0 28.7 25.6;" xml:space="preserve">
<style type="text/css">
	.st0{fill:#2C3E50;}
	.st1{fill:#B0BEC5;}
	.st2{fill:#4FC3F7;}
</style>
<g>
	<path class="st0" d="M7,6c1.2-2.3,3.4-3.7,5.8-4.1C11.5,0.7,9.9,0,8,0C4.1,0,1,3.1,1,7c0,0.7,0.1,1.3,0.3,2C2.6,7.2,4.6,6,7,6z"/>
	<path class="st1" d="M28.7,14.2C28.3,10.9,25.3,8.6,22,9c-0.3-2.6-1.8-5-4.2-6.2c-1.6-0.9-3.4-1.1-5-0.9C10.4,2.3,8.2,3.7,7,6
		C4.6,6,2.6,7.2,1.3,9C0.5,10.1,0,11.5,0,13c0,3.9,3.1,7,7,7h19C27.9,18.7,29,16.5,28.7,14.2z"/>
	<path class="st2" d="M15.1,21.2c0,0-0.6,0.7-1.1,1.8c-0.6,1.2,0.6,2.2,1.1,2.6c0.5-0.4,1.6-1.4,1.1-2.6
		C15.7,21.9,15.1,21.2,15.1,21.2z"/>
	<path class="st2" d="M22.1,21.2c0,0-0.6,0.7-1.1,1.8c-0.6,1.2,0.6,2.2,1.1,2.6c0.5-0.4,1.6-1.4,1.1-2.6
		C22.7,21.9,22.1,21.2,22.1,21.2z"/>
</g>
</svg>
