<?xml version="1.0" encoding="utf-8"?>
<!-- Generator: Adobe Illustrator 21.0.0, SVG Export Plug-In . SVG Version: 6.00 Build 0)  -->
<svg version="1.1" id="Layer_1" xmlns="http://www.w3.org/2000/svg" xmlns:xlink="http://www.w3.org/1999/xlink" x="0px" y="0px"
	 viewBox="0 0 42 42" style="enable-background:new 0 0 42 42;" xml:space="preserve">
<style type="text/css">
	.st0{fill:#FDB813;}
</style>
<g>
	<circle class="st0" cx="21" cy="21" r="8"/>
	<path class="st0" d="M21,34c-0.6,0-1,0.4-1,1v6c0,0.6,0.4,1,1,1s1-0.4,1-1v-6C22,34.4,21.6,34,21,34z"/>
	<path class="st0" d="M32.7,31.3c-0.4-0.4-1-0.4-1.4,0s-0.4,1,0,1.4l4,4c0.2,0.2,0.5,0.3,0.7,0.3s0.5-0.1,0.7-0.3
		c0.4-0.4,0.4-1,0-1.4L32.7,31.3z"/>
	<path class="st0" d="M41,20h-6c-0.6,0-1,0.4-1,1s0.4,1,1,1h6c0.6,0,1-0.4,1-1S41.6,20,41,20z"/>
	<path class="st0" d="M6.7,5.3c-0.4-0.4-1-0.4-1.4,0c-0.4,0.4-0.4,1,0,1.4l4,4C9.5,10.9,9.8,11,10,11s0.5-0.1,0.7-0.3
		c0.4-0.4,0.4-1,0-1.4L6.7,5.3z"/>
	<path class="st0" d="M9.3,31.3l-4,4c-0.4,0.4-0.4,1,0,1.4C5.5,36.9,5.7,37,6,37s0.5-0.1,0.7-0.3l4-4c0.4-0.4,0.4-1,0-1.4
		S9.7,30.9,9.3,31.3z"/>
	<path class="st0" d="M21,8c0.6,0,1-0.4,1-1V1c0-0.6-0.4-1-1-1s-1,0.4-1,1v6C20,7.6,20.4,8,21,8z"/>
	<path class="st0" d="M32,11c0.3,0,0.5-0.1,0.7-0.3l4-4c0.4-0.4,0.4-1,0-1.4s-1-0.4-1.4,0l-4,4c-0.4,0.4-0.4,1,0,1.4
		C31.5,10.9,31.7,11,32,11z"/>
	<path class="st0" d="M8,21c0-0.6-0.4-1-1-1H1c-0.6,0-1,0.4-1,1s0.4,1,1,1h6C7.6,22,8,21.6,8,21z"/>
</g>
</svg>
