<?xml version="1.0" encoding="utf-8"?>
<!-- Generator: Adobe Illustrator 21.0.0, SVG Export Plug-In . SVG Version: 6.00 Build 0)  -->
<svg version="1.1" id="Layer_1" xmlns="http://www.w3.org/2000/svg" xmlns:xlink="http://www.w3.org/1999/xlink" x="0px" y="0px"
	 viewBox="0 0 48 48" style="enable-background:new 0 0 48 48;" xml:space="preserve">
<style type="text/css">
	.st0{fill:#B0BEC5;}
	.st1{fill:#CFD8DC;}
</style>
<g>
	<path class="st0" d="M22,24c1.9-3.4,6.1-4.6,9.5-2.8c0.5,0.3,1,0.7,1.4,1.1c-1.2-2-3.6-3-5.9-2.3c-0.4-2-1.7-3.8-3.5-4.8
		c-3.4-1.9-7.6-0.6-9.5,2.8c-3.3,0-6,2.7-6,6s2.7,6,6,6h2C16,26.7,18.7,24,22,24z"/>
	<path class="st1" d="M41.5,29.5c-0.8-2.8-3.7-4.3-6.5-3.5c-0.3-1.4-1-2.7-2.1-3.7c-0.4-0.4-0.9-0.8-1.4-1.1
		c-3.4-1.9-7.6-0.6-9.5,2.8c-3.3,0-6,2.7-6,6s2.7,6,6,6h16C40.8,35.2,42.3,32.3,41.5,29.5z"/>
</g>
</svg>
