<svg xmlns="http://www.w3.org/2000/svg" version="1.1" xmlns:xlink="http://www.w3.org/1999/xlink" width="1000" height="1000"><g clip-path="url(#SvgjsClipPath1060)"><rect width="1000" height="1000" fill="#4a90e2"></rect><g transform="matrix(15.625,0,0,15.625,0,0)"><svg xmlns="http://www.w3.org/2000/svg" width="64" height="64" viewBox="0 0 64 64"><circle cx="26" cy="24" r="12" fill="#FFD54F"></circle><path d="M24 40
           h22
           c4 0 7-3 7-7
           s-3-7-7-7
           c-1 0-2 0-3 1
           c-2-4-6-7-10-7
           c-5 0-9 3-11 7
           c-1-1-2-1-3-1
           c-4 0-7 3-7 7
           s3 7 7 7z" fill="#ffffff"></path><path d="M28 46c0 3-2 5-2 5s-2-2-2-5c0-2 2-4 2-4s2 2 2 4z" fill="#4FC3F7"></path><path d="M36 48c0 3-2 5-2 5s-2-2-2-5c0-2 2-4 2-4s2 2 2 4z" fill="#4FC3F7"></path><path d="M44 46c0 3-2 5-2 5s-2-2-2-5c0-2 2-4 2-4s2 2 2 4z" fill="#4FC3F7"></path></svg></g></g><defs><clipPath id="SvgjsClipPath1060"><rect width="1000" height="1000" x="0" y="0" rx="350" ry="350"></rect></clipPath></defs></svg>