<?xml version="1.0" encoding="utf-8"?>
<!-- Generator: Adobe Illustrator 21.0.0, SVG Export Plug-In . SVG Version: 6.00 Build 0)  -->
<svg version="1.1" id="Layer_1" xmlns="http://www.w3.org/2000/svg" xmlns:xlink="http://www.w3.org/1999/xlink" x="0px" y="0px"
	 viewBox="0 0 26.7 23" style="enable-background:new 0 0 26.7 23;" xml:space="preserve">
<style type="text/css">
	.st0{fill:#FDB813;}
	.st1{fill:#CFD8DC;}
</style>
<g>
	<path class="st0" d="M14,7.4c0-0.1,0-0.3,0-0.4c0-3.9-3.1-7-7-7S0,3.1,0,7c0,2.3,1.1,4.4,2.9,5.6C4,11.6,5.4,11,7,11
		C8.4,8.4,11.2,7.1,14,7.4z"/>
	<path class="st1" d="M26.5,16.5c-0.8-2.8-3.7-4.3-6.5-3.5c-0.4-2-1.7-3.8-3.5-4.8c-0.8-0.4-1.7-0.7-2.5-0.8c-2.8-0.3-5.6,1-7,3.6
		c-1.6,0-3,0.6-4.1,1.6C1.7,13.7,1,15.3,1,17c0,3.3,2.7,6,6,6h16C25.8,22.2,27.3,19.3,26.5,16.5z"/>
</g>
</svg>
