<?xml version="1.0" encoding="utf-8"?>
<!-- Generator: Adobe Illustrator 21.0.0, SVG Export Plug-In . SVG Version: 6.00 Build 0)  -->
<svg version="1.1" id="Layer_1" xmlns="http://www.w3.org/2000/svg" xmlns:xlink="http://www.w3.org/1999/xlink" x="0px" y="0px"
	 viewBox="0 0 48 48" style="enable-background:new 0 0 48 48;" xml:space="preserve">
<style type="text/css">
	.st0{fill:#FDB813;}
	.st1{fill:#CFD8DC;}
</style>
<g>
	<path class="st0" d="M25,16.4c0-0.1,0-0.3,0-0.4c0-3.9-3.1-7-7-7s-7,3.1-7,7c0,2.3,1.1,4.4,2.9,5.6c1.1-1,2.5-1.6,4.1-1.6
		C19.4,17.4,22.2,16.1,25,16.4z"/>
	<path class="st1" d="M37.5,25.5c-0.8-2.8-3.7-4.3-6.5-3.5c-0.4-2-1.7-3.8-3.5-4.8c-0.8-0.4-1.7-0.7-2.5-0.8c-2.8-0.3-5.6,1-7,3.6
		c-1.6,0-3,0.6-4.1,1.6C12.7,22.7,12,24.3,12,26c0,3.3,2.7,6,6,6h16C36.8,31.2,38.3,28.3,37.5,25.5z"/>
</g>
</svg>
