<?xml version="1.0" encoding="utf-8"?>
<!-- Generator: Adobe Illustrator 21.0.0, SVG Export Plug-In . SVG Version: 6.00 Build 0)  -->
<svg version="1.1" id="Layer_1" xmlns="http://www.w3.org/2000/svg" xmlns:xlink="http://www.w3.org/1999/xlink" x="0px" y="0px"
	 viewBox="0 0 48 48" style="enable-background:new 0 0 48 48;" xml:space="preserve">
<style type="text/css">
	.st0{fill:#2C3E50;}
	.st1{fill:#CFD8DC;}
</style>
<g>
	<path class="st0" d="M18,20c0.7-1.3,1.7-2.2,2.9-2.8C19.8,16.4,18.4,16,17,16c-3.9,0-7,3.1-7,7c0,2.1,1,4,2.5,5.3
		C12.2,27.6,12,26.8,12,26C12,22.7,14.7,20,18,20z"/>
	<path class="st1" d="M37.5,25.5c-0.8-2.8-3.7-4.3-6.5-3.5c-0.4-2-1.7-3.8-3.5-4.8c-2.1-1.2-4.6-1.1-6.6-0.1
		c-1.2,0.6-2.2,1.6-2.9,2.8c-3.3,0-6,2.7-6,6c0,0.8,0.2,1.6,0.5,2.3c0.9,2.2,3,3.7,5.5,3.7h16C36.8,31.2,38.3,28.3,37.5,25.5z"/>
</g>
</svg>
