<?xml version="1.0" encoding="utf-8"?>
<!-- Generator: Adobe Illustrator 21.0.0, SVG Export Plug-In . SVG Version: 6.00 Build 0)  -->
<svg version="1.1" id="Layer_1" xmlns="http://www.w3.org/2000/svg" xmlns:xlink="http://www.w3.org/1999/xlink" x="0px" y="0px"
	 viewBox="0 0 48 48" style="enable-background:new 0 0 48 48;" xml:space="preserve">
<style type="text/css">
	.st0{fill:#B0BEC5;}
</style>
<g>
	<path class="st0" d="M40,19H8c-0.6,0-1,0.4-1,1s0.4,1,1,1h32c0.6,0,1-0.4,1-1S40.6,19,40,19z"/>
	<path class="st0" d="M36,25H8c-0.6,0-1,0.4-1,1s0.4,1,1,1h28c0.6,0,1-0.4,1-1S36.6,25,36,25z"/>
	<path class="st0" d="M32,31H8c-0.6,0-1,0.4-1,1s0.4,1,1,1h24c0.6,0,1-0.4,1-1S32.6,31,32,31z"/>
</g>
</svg>
