<?xml version="1.0" encoding="utf-8"?>
<!-- Generator: Adobe Illustrator 21.0.0, SVG Export Plug-In . SVG Version: 6.00 Build 0)  -->
<svg version="1.1" id="Layer_1" xmlns="http://www.w3.org/2000/svg" xmlns:xlink="http://www.w3.org/1999/xlink" x="0px" y="0px"
	 viewBox="0 0 48 48" style="enable-background:new 0 0 48 48;" xml:space="preserve">
<style type="text/css">
	.st0{fill:#2C3E50;}
	.st1{fill:#B0BEC5;}
	.st2{fill:#4FC3F7;}
</style>
<g>
	<path class="st0" d="M16,16c1.2-2.3,3.4-3.7,5.8-4.1C20.5,10.7,18.9,10,17,10c-3.9,0-7,3.1-7,7c0,0.7,0.1,1.3,0.3,2
		C11.6,17.2,13.6,16,16,16z"/>
	<path class="st1" d="M37.7,24.2c-0.4-3.3-3.4-5.6-6.7-5.2c-0.3-2.6-1.8-5-4.2-6.2c-1.6-0.9-3.4-1.1-5-0.9c-2.4,0.4-4.6,1.8-5.8,4.1
		c-2.4,0-4.4,1.2-5.7,3C9.5,20.1,9,21.5,9,23c0,3.9,3.1,7,7,7h19C36.9,28.7,38,26.5,37.7,24.2z"/>
	<path class="st2" d="M24.1,31.2c0,0-0.6,0.7-1.1,1.8c-0.6,1.2,0.6,2.2,1.1,2.6c0.5-0.4,1.6-1.4,1.1-2.6
		C24.7,31.9,24.1,31.2,24.1,31.2z"/>
	<path class="st2" d="M31.1,31.2c0,0-0.6,0.7-1.1,1.8c-0.6,1.2,0.6,2.2,1.1,2.6c0.5-0.4,1.6-1.4,1.1-2.6
		C31.7,31.9,31.1,31.2,31.1,31.2z"/>
</g>
</svg>
