<?xml version="1.0" encoding="utf-8"?>
<!-- Generator: Adobe Illustrator 21.0.0, SVG Export Plug-In . SVG Version: 6.00 Build 0)  -->
<svg version="1.1" id="Layer_1" xmlns="http://www.w3.org/2000/svg" xmlns:xlink="http://www.w3.org/1999/xlink" x="0px" y="0px"
	 viewBox="0 0 48 48" style="enable-background:new 0 0 48 48;" xml:space="preserve">
<style type="text/css">
	.st0{fill:#B0BEC5;}
	.st1{fill:#4FC3F7;}
</style>
<g>
	<path class="st0" d="M37.7,22.2c-0.4-3.3-3.4-5.6-6.7-5.2c-0.3-2.6-1.8-5-4.2-6.2C23,8.7,18.1,10.1,16,14c-3.9,0-7,3.1-7,7
		s3.1,7,7,7h19C36.9,26.7,38,24.5,37.7,22.2z"/>
	<path class="st1" d="M20.2,30c0,0-0.6,0.8-1.2,2s0.6,2.5,1.2,3c0.6-0.5,1.8-1.8,1.2-3C20.8,30.8,20.2,30,20.2,30z"/>
	<path class="st1" d="M27.2,30c0,0-0.6,0.8-1.2,2s0.6,2.5,1.2,3c0.6-0.5,1.8-1.8,1.2-3C27.8,30.8,27.2,30,27.2,30z"/>
	<path class="st1" d="M34.2,30c0,0-0.6,0.8-1.2,2s0.6,2.5,1.2,3c0.6-0.5,1.8-1.8,1.2-3C34.8,30.8,34.2,30,34.2,30z"/>
</g>
</svg>
