<?xml version="1.0" encoding="utf-8"?>
<!-- Generator: Adobe Illustrator 21.0.0, SVG Export Plug-In . SVG Version: 6.00 Build 0)  -->
<svg version="1.1" id="Layer_1" xmlns="http://www.w3.org/2000/svg" xmlns:xlink="http://www.w3.org/1999/xlink" x="0px" y="0px"
	 viewBox="0 0 48 48" style="enable-background:new 0 0 48 48;" xml:space="preserve">
<style type="text/css">
	.st0{fill:#FDB813;}
</style>
<g>
	<circle class="st0" cx="24" cy="24" r="8"/>
	<path class="st0" d="M24,37c-0.6,0-1,0.4-1,1v6c0,0.6,0.4,1,1,1s1-0.4,1-1v-6C25,37.4,24.6,37,24,37z"/>
	<path class="st0" d="M35.7,34.3c-0.4-0.4-1-0.4-1.4,0s-0.4,1,0,1.4l4,4c0.2,0.2,0.5,0.3,0.7,0.3s0.5-0.1,0.7-0.3
		c0.4-0.4,0.4-1,0-1.4L35.7,34.3z"/>
	<path class="st0" d="M44,23h-6c-0.6,0-1,0.4-1,1s0.4,1,1,1h6c0.6,0,1-0.4,1-1S44.6,23,44,23z"/>
	<path class="st0" d="M9.7,8.3c-0.4-0.4-1-0.4-1.4,0s-0.4,1,0,1.4l4,4c0.2,0.2,0.5,0.3,0.7,0.3s0.5-0.1,0.7-0.3c0.4-0.4,0.4-1,0-1.4
		L9.7,8.3z"/>
	<path class="st0" d="M12.3,34.3l-4,4c-0.4,0.4-0.4,1,0,1.4C8.5,39.9,8.7,40,9,40s0.5-0.1,0.7-0.3l4-4c0.4-0.4,0.4-1,0-1.4
		S12.7,33.9,12.3,34.3z"/>
	<path class="st0" d="M24,11c0.6,0,1-0.4,1-1V4c0-0.6-0.4-1-1-1s-1,0.4-1,1v6C23,10.6,23.4,11,24,11z"/>
	<path class="st0" d="M35,14c0.3,0,0.5-0.1,0.7-0.3l4-4c0.4-0.4,0.4-1,0-1.4s-1-0.4-1.4,0l-4,4c-0.4,0.4-0.4,1,0,1.4
		C34.5,13.9,34.7,14,35,14z"/>
	<path class="st0" d="M11,24c0-0.6-0.4-1-1-1H4c-0.6,0-1,0.4-1,1s0.4,1,1,1h6C10.6,25,11,24.6,11,24z"/>
</g>
</svg>
