<?xml version="1.0" encoding="utf-8"?>
<!-- Generator: Adobe Illustrator 21.0.0, SVG Export Plug-In . SVG Version: 6.00 Build 0)  -->
<svg version="1.1" id="Layer_1" xmlns="http://www.w3.org/2000/svg" xmlns:xlink="http://www.w3.org/1999/xlink" x="0px" y="0px"
	 viewBox="0 0 48 48" style="enable-background:new 0 0 48 48;" xml:space="preserve">
<style type="text/css">
	.st0{fill:#78909C;}
	.st1{fill:#FFD54F;}
</style>
<g>
	<path class="st0" d="M37.7,22.2c-0.4-3.3-3.4-5.6-6.7-5.2c-0.3-2.6-1.8-5-4.2-6.2C23,8.7,18.1,10.1,16,14c-3.9,0-7,3.1-7,7
		s3.1,7,7,7h8.3l0.7-1h2l-0.5,1H35C36.9,26.7,38,24.5,37.7,22.2z"/>
	<polygon class="st1" points="25,27 24.3,28 21,33 25,33 22,39 29,31 25,31 26.5,28 27,27 	"/>
</g>
</svg>
