<?xml version="1.0" encoding="utf-8"?>
<!-- Generator: Adobe Illustrator 21.0.0, SVG Export Plug-In . SVG Version: 6.00 Build 0)  -->
<svg version="1.1" id="Layer_1" xmlns="http://www.w3.org/2000/svg" xmlns:xlink="http://www.w3.org/1999/xlink" x="0px" y="0px"
	 viewBox="0 0 28.7 25.2" style="enable-background:new 0 0 28.7 25.2;" xml:space="preserve">
<style type="text/css">
	.st0{fill:#B0BEC5;}
	.st1{fill:#4FC3F7;}
</style>
<g>
	<path class="st0" d="M28.7,12.4c-0.4-3.3-3.4-5.6-6.7-5.2c-0.3-2.6-1.8-5-4.2-6.2C14-1.1,9.1,0.3,7,4.2c-3.9,0-7,3.1-7,7s3.1,7,7,7
		h19C27.9,16.9,29,14.7,28.7,12.4z"/>
	<path class="st1" d="M11.2,20.2c0,0-0.6,0.8-1.2,2s0.6,2.5,1.2,3c0.6-0.5,1.8-1.8,1.2-3C11.8,21,11.2,20.2,11.2,20.2z"/>
	<path class="st1" d="M18.2,20.2c0,0-0.6,0.8-1.2,2s0.6,2.5,1.2,3c0.6-0.5,1.8-1.8,1.2-3C18.8,21,18.2,20.2,18.2,20.2z"/>
	<path class="st1" d="M25.2,20.2c0,0-0.6,0.8-1.2,2s0.6,2.5,1.2,3c0.6-0.5,1.8-1.8,1.2-3C25.8,21,25.2,20.2,25.2,20.2z"/>
</g>
</svg>
