<?xml version="1.0" encoding="utf-8"?>
<!-- Generator: Adobe Illustrator 21.0.0, SVG Export Plug-In . SVG Version: 6.00 Build 0)  -->
<svg version="1.1" id="Layer_1" xmlns="http://www.w3.org/2000/svg" xmlns:xlink="http://www.w3.org/1999/xlink" x="0px" y="0px"
	 viewBox="0 0 656.3 750" style="enable-background:new 0 0 656.3 750;" xml:space="preserve">
<style type="text/css">
	.st0{fill:#90CAF9;}
</style>
<path class="st0" d="M328.2,0c-13.9,0-25,11.1-25,25v76.6l-62.7-35.7c-11.9-6.8-27.1-2.7-34,9.2c-6.8,12.1-2.7,27.3,9.2,34.2
	l87.5,50v172.5l-149.4-86.3l0.4-100.6c0-13.7-11.1-25-24.8-25c-13.9,0-25,11.1-25,24.8l-0.4,72.1l-66.4-38.3
	c-5.7-3.3-12.5-4.3-18.9-2.5s-11.9,6.1-15.2,11.7c-3.3,5.7-4.3,12.5-2.5,18.9s6.1,11.9,11.7,15.2L79,260l-62.3,36.3
	c-11.9,6.8-16,22.3-9,34.2c6.8,11.9,22.1,16,34.2,9l86.9-50.8L278.2,375l-149.4,86.3l-86.9-50.8c-12.1-7-27.3-2.9-34.2,9.2
	c-7,11.9-2.9,27.1,9,34L79,490l-66.4,38.3c-5.7,3.3-10,8.8-11.7,15.2s-0.8,13.3,2.5,18.9h0.2c6.8,11.9,22.1,16,34,9.2l66.4-38.3
	l0.4,72.1c0,13.7,11.1,25,25,24.8c13.7,0,24.8-11.1,24.8-25l-0.4-100.6l149.4-86.3v175l-87.3,49.4c-5.9,3.1-10,8.6-11.7,15
	c-2,6.3-1,13.1,2.3,18.9c3.1,5.9,8.6,10,15,11.7c6.3,2,13.1,1,18.9-2.1l62.7-35.5V725c0,13.9,11.1,25,25,25c13.9,0,25-11.1,25-25
	v-74.2l62.7,35.5c5.9,3.1,12.7,4.1,18.9,2.1c6.4-1.8,11.9-5.9,15.2-11.7c3.1-5.9,4.1-12.7,2.1-18.9c-1.8-6.4-5.9-11.9-11.7-15
	l-87.3-49.4v-175l151.6,87.5L504,606.3c-0.2,13.7,10.9,25,24.6,25c6.6,0.2,13.1-2.3,17.8-7s7.4-10.9,7.6-17.6l0.6-72.1l64.3,37.1
	c11.9,6.8,27.1,2.7,34.2-9.2c6.8-11.9,2.7-27.3-9.2-34.2l-64.3-37.1l62.1-36.5c5.7-3.3,9.8-8.8,11.3-15.2c1.8-6.4,0.8-13.3-2.5-19.1
	c-7-11.7-22.5-15.6-34.2-8.8l-86.5,51L378.2,375l151.6-87.5l86.5,51c11.7,7,27.1,2.9,34.2-8.8c3.3-5.9,4.3-12.7,2.5-19.1
	c-1.6-6.4-5.7-11.9-11.3-15.2l-62.1-36.5l64.3-37.1c11.9-6.8,16-22.3,9.2-34.2c-7-11.9-22.3-16-34.2-9.2l-64.3,37.1l-0.6-72.1
	c-0.2-6.6-2.9-12.9-7.6-17.6c-4.7-4.7-11.1-7.2-17.8-7c-13.9,0-24.8,11.3-24.6,25.2l0.8,100.2l-151.6,87.5V159.2l87.5-50
	c11.9-6.8,16-22.1,9.2-34.2c-6.8-11.9-22.1-16-34-9.2l-62.7,35.7V25C353.2,11.1,342.1,0,328.2,0L328.2,0z"/>
</svg>
